<?xml version="1.0" encoding="UTF-8"?>
<svg id="Layer_2" data-name="Layer 2" xmlns="http://www.w3.org/2000/svg" viewBox="0 0 386.75 457.98">
  <defs>
    <style>
      .cls-1 {
        stroke-width: 0px;
      }
    </style>
  </defs>
  <g id="katman_1" data-name="katman 1">
    <g id="yG6haS">
      <g>
        <path class="cls-1" d="m68.19,430.02c7.6,5.94,16.95,8.26,25.08,12.88-.34,1.39-1.49,1.34-2.31,1.48-6.35,1.08-9.53,6.17-13.37,10.42-.6.67-.79,1.42-.23,2.25.52.77,1.24,1.05,2.13.88.27-.05.55-.12.78-.25,12.13-6.85,25.81-6.15,38.97-7.95,2.91-.4,5.2-1.27,7.21-3.41,2.72-2.9,9.58-3.59,12.93-1.36,2.47,1.64,5.22,2.46,8.01,3.22.78.21,1.67.59,2.34-.08.73-.73.09-1.53-.19-2.27-1.94-4.98-4.89-8.73-10.49-10.11-4.03-1-3.94-1.32-1.77-4.94,2.83-4.73,5.77-9.4,8.42-14.23,1.23-2.25,2.24-2.92,5.04-2.24,8.02,1.93,16.18,3.24,24.19,4.78.37,1.15-.42,1.52-.95,1.72-6.24,2.24-8.48,7.92-11.32,13.07-.53.96-1.08,2,.02,2.99,1.25,1.12,2.34.46,3.28-.4,10.53-9.53,24.16-12.24,36.98-16.64,4.48-1.54,9.11-1.14,13.1,2.42,2.32,2.07,5.3,3.34,9.11,3.86-1.31-5.42-2.13-10.54-7.69-13.05-1.25-.57-2.42-1.36-3.71-1.81-2.49-.87-2.92-2.16-1.95-4.69,6.39-16.61,11.2-33.72,15.8-50.89.78-2.89,2.06-4.89,4.73-6.65,5.85-3.87,11.18-8.5,16.86-12.63,5.82-4.24,12.1-7.56,19.08-9.64,5.6-1.67,8.93-6.24,11.84-10.98,2.68-4.36,4.68-9.06,6.18-13.94.72-2.34,2.07-3.63,4.34-4.48,4.13-1.54,8.1-3.48,12.22-5.04,13.82-5.23,22.64-15.17,27.7-28.83,2.23-6,2.37-6,8.56-4.93,3.55.61,7.11,1.1,10.69.69,3.71-.42,7.19-1.43,7.77-5.95.24-1.83,1.46-1.7,2.71-1.68,3.04.05,6.06-.11,9.05-.69,2.06-.4,4.01-1.04,5.63-2.42,2.91-2.48,3.02-6,.22-8.6-1.51-1.4-3.29-2.45-5.45-3.32,1.65-1.47,3.55-1.36,5.07-2.16,2.28-1.2,4.41-2.61,4.45-5.45.05-2.82-1.84-4.52-4.23-5.6-1.49-.67-3.1-1.12-4.69-1.54-1.42-.37-3.01-.08-4.53-1.1,5.69-1.47,11.15-2.78,16.53-4.34,1.87-.54,4.42-.88,4.41-3.6-.01-2.61-2.2-3.65-4.25-4.54-3.47-1.51-7.18-1.84-10.91-1.99-1.64-.07-3.28-.18-4.87-.27-.4-1.52.76-2.13,1.35-2.98,5.13-7.35,10.3-14.66,14.43-22.64,1.53-2.95,2.89-5.96,3.59-9.22.47-2.2.84-4.52-1.19-6.13-2.25-1.79-4.51-.55-6.52.64-3.7,2.19-6.76,5.2-9.84,8.17-.68.66-1.38,1.29-2.67,1.54,1.3-2.15,2.59-4.3,3.9-6.45,4.95-8.13,9.65-16.39,13.1-25.29,1.25-3.23,2.25-6.54,1.93-10.06-.3-3.34-2.12-4.94-5.48-4.7-1.29.09-2.33.07-3.5-.63-2.55-1.53-2.6-1.44-6.28-1.07-.96-1.29.15-2.35.54-3.39,2.17-5.81,4.29-11.63,5.75-17.67.62-2.58.86-5.19.54-7.8-.44-3.5-2.79-4.64-5.94-3-2.88,1.51-4.9,4-6.92,6.43-2.44,2.96-4.7,6.06-7.22,9.02,1.62-5.35,3.67-10.56,4.75-16.05.62-3.14.97-6.3.22-9.42-1.11-4.63-4.63-6.15-8.78-3.9-2.56,1.39-4.65,3.38-6.84,5.39,1.64-5.34,4.05-10.36,5.39-15.75.44-1.76.72-3.49.72-5.3-.02-5.81-3.54-8.09-9.04-5.75-4.4,1.87-7.16,5.5-9.67,9.32-6.77,10.31-11.31,21.72-16.32,32.9-7.14,15.97-13.99,32.07-23.4,46.91-2.59,4.09-5.63,7.82-8.67,11.57-1,1.23-2.18,2.16-3.7,2.48-5.96,1.24-12.09,2.42-18.02.89-11.18-2.9-22.41-2.34-33.69-1.56-5.77.4-11.55.83-17.3,1.48-5.84.67-11.17-.67-16.39-3.16-8.99-4.29-17.2-9.86-25.54-15.22-1.52-.97-2.98-2.08-4.91-1.83-9.07,1.16-15.71-3.87-22.4-8.77-.44-.32-.77-.81-1.24-1.07-8.25-4.68-12.92-12.03-16.01-20.77-3.31-9.34-7.09-18.51-10.55-27.8-5.08-13.61-13.71-24.41-25.65-32.59-5.23-3.58-10.54-7.05-15.78-10.6-3.31-2.24-7.15-2.79-10.93-3.43-4.86-.82-4.87-.76-3.16-5.18,2.18-5.65,4.27-11.34,5.48-17.3.19-.94.4-1.89.46-2.84.07-1.13-.13-2.27-1.23-2.87-1.21-.67-2.06.2-2.93.88-2.86,2.27-5,5.38-8.62,7.66-.64-3.61-1.17-6.82-1.81-10.01-.35-1.72-.42-4.13-2.39-4.44-2.22-.36-3.08,2.03-3.9,3.7-1.74,3.54-3.26,7.19-5.08,11.26-2.76-5.3-5.28-10.16-7.82-15-.51-.97-1.06-1.93-1.67-2.85-.59-.89-1.12-2.13-2.46-1.74-1.14.33-1.67,1.49-1.84,2.57-.41,2.58-.97,5.15-.84,7.79.22,4.2.41,8.4.65,13.44-2.47-3.29-4.37-5.93-6.39-8.47-.84-1.06-1.82-2.31-3.38-2.02-1.9.36-1.96,2.22-2.14,3.62-.35,2.72-.46,5.49-.51,8.24-.03,1.74-.28,2.91-2.44,2.87-2.45-.04-3.67,1.52-4.2,3.77-2.57,10.86-3.22,21.37,5.71,30.01,1.31,1.27.88,2.07-.24,3-2.23,1.85-4.33,3.84-6.22,6.04-1.53,1.79-2.95,3.65-3.92,5.8-1.18,2.63-2.89,5.54-.28,8.02,2.49,2.36,5.44.92,8.13-.2.88-.37,1.66-1.03,2.56-1.32,3.1-.98,4.15-.07,3.75,3.22-.46,3.74-.16,7.44.67,11.08,2.28,10.02,10.57,14.26,21.05,10.72,2.45-.83,4.75-2.08,7.17-3.16,1.02,1.32.39,2.68.16,3.94-1.02,5.56-1.75,11.21-3.32,16.61-1.84,6.36-1.2,12.54-.13,18.81,1.53,8.97,3.64,17.82,5.91,26.63.75,2.92,1,5.8-.47,8.45-2.57,4.65-3.01,9.25-2.26,14.62,1.15,8.29,1.03,16.75,2.29,25.09,2.8,18.53,8.36,36.22,16.1,53.22,3.13,6.87,8.9,11.53,14.99,15.61,3.53,2.36,7.39,4.35,11.33,5.94,2.67,1.07,3.84,2.57,4.4,5.28,1.34,6.47,2.86,12.9,4.5,19.3,2.95,11.53,8.32,21.88,16.02,30.91,4.13,4.83,7.72,9.99,11.28,15.24,4.77,7.03,9.4,14.32,17.18,18.66,2,1.11.38,2.47-.09,3.5-4.17,9.01-8.96,17.7-14.19,26.14-3.12,5.03-6.57,9.86-9.77,14.84-1.16,1.81-2.37,2.21-4.43,1.42-3.72-1.42-7.59-2.46-11.37-3.75-5.44-1.85-10.88-1.2-16.31-.09-1.02.21-2.51.29-2.63,1.62-.3,3.32-2.58,2.15-4.27,1.95-3.8-.45-7.57-1.17-11.43.99Zm237.34-254.4c1.3-1.14,2.9-3.2,4.27-2.64,3.24,1.32,3.82-.96,4.91-2.72,8.56-13.82,16.71-27.9,26.22-41.11,1.69-2.35,3.43-4.7,5.78-6.43,2.19-1.61,4.05-.87,4.48,1.79.37,2.31.18,4.65-.3,6.98-1.39,6.79-3.91,13.19-6.62,19.52-6.24,14.59-13.69,28.57-21.41,42.41-.64,1.14-2.39,2.58-.12,3.77,1.95,1.02,2.31-.98,2.89-2.01,3.2-5.63,6.38-11.27,9.38-17.01,3.57-6.83,6.22-14.28,10.59-20.54,6.14-8.78,13.45-16.77,21.51-23.94,1.71-1.52,3.68-4.3,6.31-2.53,2.43,1.63,1.19,4.57.59,6.91-1.88,7.3-5.68,13.72-9.55,20.08-8.46,13.92-18.29,26.88-28.19,39.77-.8,1.05-2.12,2.23-.42,3.48,1.46,1.07,2.24-.29,2.97-1.24,11.86-15.4,23.61-30.88,32.96-48,2.83-5.19,5.55-10.49,6.27-16.52.16-1.34.03-3.15,2.05-2.85,1.64.25,1.22,1.95,1.16,3.11-.06,1.22-.36,2.45-.68,3.64-1.19,4.42-3.16,8.52-5.24,12.57-8.53,16.59-19.02,31.94-29.76,47.15-.71,1.01-1.47,2-2.1,3.06-.48.8-.31,1.59.43,2.2.78.64,1.56.51,2.2-.16.67-.69,1.24-1.47,1.85-2.22,7.66-9.41,15.53-18.63,24.29-27.05,2.39-2.29,4.84-4.51,7.67-6.26.72-.45,1.54-.88,2.31-.37.79.53.63,1.48.45,2.28-.58,2.57-1.64,4.97-2.84,7.3-5.98,11.56-13.78,21.89-21.47,32.33-4.99,6.77-11.07,12.26-17.94,16.93-15.96,10.86-33.29,17.18-52.91,14.89-7.24-.85-14.39-2.37-21.59-3.6-6.24-1.06-12.48-2.13-18.72-3.22-1.14-.2-2.3-.45-2.58,1.11-.25,1.43.67,1.91,1.92,2.1.95.14,1.88.44,2.83.61,10.04,1.75,20.02,3.97,30.13,5.12,14.5,1.65,28.74,3.7,42.33,9.56,7.88,3.39,7.89,2.71,4.57,10.85-4.5,11.05-12.02,18.77-22.95,23.63-14.27,6.35-28.92,11.47-44.05,15.24-2.57.64-5.11,1.77-8.38,1.49,1.45-1.86,2.63-3.35,3.79-4.86.7-.91.7-1.79-.27-2.5-.8-.58-1.55-.37-2.2.31-.47.5-.94,1.01-1.38,1.53-5.4,6.44-10.84,12.86-15.68,19.74-1.55,2.2-3.31,3.97-5.53,5.43-12.21,8.04-24.73,15.62-37.8,22.09-7.65,3.79-12.79,9.24-16.37,16.64-.6,1.24-1.25,2.46-1.93,3.66-7.06,12.46-4.07,11.21-20.15,13.35-7.47.99-13.1-1.23-17.53-7.3-2.76-3.78-5.92-7.29-8.32-11.31-2.69-4.51-5.78-8.68-9.28-12.61-9.27-10.41-15.13-22.58-18.09-36.18-1.7-7.81-3.39-15.61-5.2-23.39-.33-1.43-.09-3.86-2.57-3.43-2.37.41-.88,2.43-1.03,3.76-.03.24-.23.46-.45.87-3.53-1.14-6.77-3.02-9.91-4.93-7.03-4.28-13-9.59-16.35-17.49-7.2-16.97-12.42-34.47-14.86-52.75-.62-4.63-1.65-9.3-.87-14.38,1.52,1.59.24,2.94.46,4.24.23,1.35.21,2.75.42,4.1,3.94,26.19,17.71,46.51,37.89,62.84,5.73,4.64,12.21,8.1,20.06,7.4,1.36-.12,2.35.6,3.37,1.33,4.54,3.25,9.68,5.23,14.94,6.9,17.54,5.58,35.62,8.58,53.82,10.88,13.39,1.69,26.77,2.82,40.29.32,6.58-1.22,13.45-.95,20.14-1.9,3-.43,6.03-.9,8.7-2.45,3.38-1.96,3.55-4.42.43-6.73-1.62-1.2-3.44-2.14-5.25-3.25,4.99-3.48,5-5.66.18-9.36-2.63-2.02-5.57-3.54-8.51-5.07-2.68-1.4-5.62-2.36-8.45-4.49,1.23-.07,1.92-.06,2.6-.17,4.75-.77,6.44-4.47,3.76-8.43-.75-1.11-1.9-1.96-2.88-2.93-2.52-2.49-6.02-3.47-9.11-5.68,1.63-.08,2.86-.08,4.08-.22,2.21-.25,4.59-.45,5.39-3.02.82-2.63-1.22-3.98-2.88-5.42-.91-.79-2.28-1.18-2.39-2.65-.21-2.75-2.19-3.97-4.3-5.1-.94-.51-2.12-.76-2.37-2.07-.42-2.21-2.21-3.01-3.96-3.85-5.86-2.81-12.07-4.71-18.32-6.32-5.31-1.36-10.26-2.96-13.54-7.75-.6-.87-1.63-1.47-2.51-2.12-10.42-7.75-22.58-11.29-34.94-14.3-5.88-1.43-11.8-2.71-17.84-3.3-1.06-.1-2.4-.28-2.64,1.23-.24,1.51,1.08,1.67,2.12,2,1.84.59,3.94.07,5.63,1.15,7.28,4.62,14.52,9.3,21.78,13.96-.1.19-.2.38-.3.58-11.65-1.05-23.3-2.09-34.96-3.14-.09.33-.17.65-.26.98,3.46,4.34,8.23,7.45,12.46,12.34-17.47-2.29-34.09-4.46-50.71-6.64-.17.37-.34.74-.51,1.11,8.28,7.3,16.55,14.59,25.53,22.51-9.33-1.75-17.69-3.34-26.06-4.87-3.96-.72-3.92-.68-2.95,3.38,1.16,4.9,3.1,9.62,3.8,15.03-3.07-.69-5.38-2.26-7.93-3.09-3.8-1.24-6.15-3.86-8.09-7.2-3.67-6.34-6.88-12.88-9.05-19.89-1.36-4.39-2.67-8.81-2.66-13.91,2.17,1.37,2.5,4.08,5.27,4.79-.17-6.04-1.05-11.76-.65-17.76,2.95.82,5.91,1.07,6.22,4.97.15,1.84,1.57,1.95,2.6.92,1.15-1.15,2.7-2.29,1.52-4.53-3.48-6.62-3.4-13.81-2.89-21,.14-1.96-.3-4.63,1.91-5.45,2.48-.92,4.84.47,6.7,2.27.88.85,1.56,1.91,2.34,2.87.9,1.09,1.23,3.12,3.27,2.48,2-.63,1.33-2.49,1.35-3.9.06-5.17.02-10.34.02-16.27,3.6,3.69,7.18,6.06,11.61,6.96,5.13,1.04,5.77.55,5.95-4.57.18-4.99.47-9.98.71-14.95,1.98.04,2.66,1.19,3.5,2.05,3.29,3.35,4.87,7.59,6.14,11.99.34,1.17.64,2.55,2.33,2.38,1.65-.16,1.73-1.54,1.92-2.76.34-2.18.56-4.37.96-6.54.76-4.05.89-8.23,2.25-12.59,3.54,6.65,6.44,13.1,11.43,18.1.32-.15.65-.3.97-.44-.65-7.89-1.29-15.79-1.93-23.64,1.82-.47,3,.43,4.31.74,7.01,1.65,12.52,6.27,18.74,9.46,3.57,1.83,7.31,4.2,11.24,3.57,4.44-.71,7.31,1.38,10.51,3.44,8.8,5.68,17.49,11.53,27.39,15.24,2.86,1.07,5.76,1.93,8.86,1.68,7.28-.59,14.54-1.31,21.83-1.82,7.24-.51,14.48-.77,21.78.05-4.11,1.93-8.3,3.55-12.43,5.32-4.81,2.06-9.56,4.26-14.34,6.4-.94.42-1.7.93-1.15,2.19.51,1.17,1.4,1.22,2.39.85,1.03-.38,2.03-.86,3.04-1.29,6.47-2.74,12.94-5.48,19.41-8.23,5.27-2.24,10.68-3.43,16.48-3.09,4.26.26,8.53-.07,12.78-.64,5.13-.7,9.44-2.57,12.72-6.82,2.34-3.04,4.82-6.05,8.21-8.07,1.49-.89,3.11-1.55,4.57-.22,1.62,1.48.04,2.84-.68,3.99-2.74,4.38-6.66,7.7-10.6,10.92-3.95,3.22-8.08,6.22-12.12,9.32-.79.61-1.55,1.26-.84,2.39.78,1.25,1.77,1.09,2.81.38,1.14-.78,2.28-1.56,3.39-2.37,4.79-3.51,9.79-6.69,14.99-9.53,3.02-1.65,6.11-3.19,9.53-3.87.81-.16,1.76-.51,2.31.27.72,1.03-.21,1.81-.8,2.51-1.88,2.26-4.36,3.79-6.77,5.38-5.65,3.72-11.62,6.87-17.69,9.82-1.15.56-2.32,1.24-1.52,2.82.71,1.41,1.88.75,2.88.42,4.58-1.49,9.14-3.06,13.74-4.49,3.3-1.02,6.7-1.6,10.17-1.51.93.02,2.1.1,2.49,1.14.41,1.08-.5,1.78-1.24,2.39-1.39,1.14-2.91,2.05-4.61,2.7-6.87,2.64-14.03,3.87-21.31,4.64-1.18.12-2.73.21-2.67,1.94.07,1.9,1.69,1.46,2.83,1.47,4.27.05,8.56-.16,12.81.09,3.17.19,6.56.2,9.26,2.93-2.13,2.16-4.68,2.62-7.2,3.15-8.27,1.75-16.69,1.78-25.07,2.4-1.38.1-3.5-.59-3.45,1.76.04,2.08,2.08,1.8,3.52,2,6.55.9,13.09,1.91,19.53,3.4,2.68.62,5.49,1.05,8.36,2.97-3.73,1.1-6.88.89-10.01.53-6.98-.79-13.94-1.71-20.91-2.55-1.27-.15-2.65-.19-2.97,1.43-.35,1.83,1.23,1.94,2.39,2.12,4.22.64,8.46,1.17,12.7,1.73,2.54.34,5.06.73,7.73,2.04-1.81.95-3.31.65-4.75.61-12.71-.37-25.19-2.61-37.69-4.61-5.98-.96-11.95-2.04-17.92-3.04-1.06-.18-2.29-.52-2.67,1.05-.44,1.81.94,2.01,2.15,2.33.53.14,1.08.23,1.62.33,13.98,2.44,27.96,4.87,42.06,6.47,5.59.63,11.22,1.45,16.89.95,1.92-.17,4.57-.2,4.95-2.22.64-3.43,3.01-2.95,5.2-3.3,1.22-.19,2.5-.22,3.64-.64,3.04-1.12,3.42-3.58.85-5.63-1.74-1.39-3.85-2.11-5.99-2.68-2.86-.76-5.73-1.53-8.59-2.29,1.05-.58,2.02-.59,2.96-.74,4.49-.71,9.06-1.17,13.14-3.35,4.19-2.23,4.3-5.91.27-8.19-1.53-.86-3.29-1.32-5.28-2.1,1-.42,1.7-.76,2.43-1.01,3.15-1.07,6.24-2.32,8.66-4.67,1.49-1.44,2.81-3.22,1.99-5.51-.84-2.34-2.72-3.33-5.14-3.45-2.48-.13-4.95.04-7.57.21ZM76.52,88.24c2.21,1.58,3.38,3.64,4.93,5.32.66.72,1.29,1.51,2.44.87,1.17-.65,1.42-1.59.94-2.79-.41-1.02-.82-2.05-1.23-3.07-2.16-5.41-4.32-10.82-6.48-16.23,1.94.53,3.26,1.49,4.63,2.37,1,.65,2.01,1.7,3.32.63,1.49-1.23.58-2.46-.13-3.65-1.86-3.14-3.73-6.27-6.05-10.16,3.94,1.76,6.27,4.45,10.06,5.72-1.02-5.31-3.66-9.44-5.83-14.2,14.28,8.39,22.85,18.84,29.15,34.82,5.53,14.02,9.53,28.68,17.47,41.69-.23.12-.36.25-.46.22-.54-.11-1.07-.23-1.59-.38-4.79-1.4-4.77-1.39-4.28,3.73.39,4.13.67,8.27,1.01,12.4-.96-.31-1.29-.72-1.58-1.16-2.41-3.76-3.34-8.13-4.96-12.22-.41-1.02-.63-2.2-2.13-2.06-1.4.13-1.71,1.14-1.87,2.32-.25,1.91-.48,3.83-.87,5.71-.94,4.58-.99,9.35-2.64,14.64-2.46-5.55-5.46-9.57-10.3-11.87-3.31-1.57-4.02-1.13-4.23,2.55-.29,5.09-.02,10.19-.59,15.28-.26,2.29-1.19,2.82-3.25,2.17-4-1.26-7.04-3.69-9.18-7.26-.57-.94-1.04-1.94-1.52-2.93-.54-1.12-.94-2.46-2.62-1.99-1.65.46-1.26,1.91-1.3,3.09-.04,1.1.03,2.2.03,3.31,0,4.87,0,9.74,0,15.02-2.61-1.56-4.62-3.17-7.1-3.45-6.18-.69-7.09.32-7.77,5.51-.9,6.95-1.02,13.82.71,20.73-3.47-.12-5.65-3.05-9.01-2.66v11.43c-2.14-2.11-2.96-4.29-4.18-6.2-2.79-4.37-3.6-8.66-.6-13.46,2.35-3.77,2.34-7.99,1.14-12.38-2.66-9.7-4.75-19.53-6.44-29.46-1.41-8.31,1.06-15.5,5.17-22.86,1.3,2.22.83,4.23,1.27,6.07.29,1.22.45,2.55,2.03,2.74,1.72.2,1.94-1.21,2.29-2.38.79-2.69,1.55-5.39,2.46-8.58.5,1.04.82,1.51.96,2.02.31,1.15.74,2.14,2.17,1.99,1.44-.16,1.58-1.31,1.7-2.44.26-2.46.52-4.93.79-7.39.37-3.28.75-6.56,1.21-10.61,3.43,4.46,5.31,8.92,8.98,13.07v-15.08c3.73,1.12,4.43.5,3.7-3.46-.27-1.46-1.09-2.86-.4-5.05Zm14.4,132.39c.1-.23.2-.46.3-.69,8.31,1.05,16.61,2.11,24.92,3.15,8.17,1.02,16.3,2.55,24.52,2.99.12-.31.24-.61.37-.92-3.87-4.08-7.73-8.16-11.65-12.3,4.56.42,9.21.84,13.86,1.26,5.63.5,11.25,1.04,16.88,1.47,1.28.1,2.94.57,3.48-1.29.53-1.8-1.07-2.36-2.15-3.1-2.27-1.56-4.61-3.02-6.91-4.54-3.54-2.35-7.07-4.71-10.61-7.07,7.44,1.05,14.4,3.16,21.17,5.9,1.01.41,2.13.69,2.69,1.77,2.28,4.46,5.97,7.89,8.82,11.92.88,1.25,2.33,2.23,2.55,4.43h-26.15c3.87,5.48,8.61,9.4,12.43,14.46-12.98,1.27-25.43.49-37.82.97-.12.36-.24.72-.35,1.08,4.51,5.24,9.02,10.47,13.53,15.71-.14.3-.28.6-.42.9-12.74-.92-25.48-1.85-38.93-2.82,2.87,6.32,7.16,10.71,9.64,16.6-7.18-.32-13.77-.6-20.36-.93-.65-.03-1.4-.23-1.91-.61-5.63-4.2-10.39-9.25-14.64-14.89,4.25.66,7.68,3.44,12.57,4.25-1.94-7.04-3.74-13.57-5.74-20.84,12.12,2.29,23.49,4.43,34.87,6.58.17-.33.35-.66.52-.99-8.5-7.49-17-14.97-25.51-22.46Zm128.58,75.08c.63-5.42-.24-7.17-4.68-9.45-2.08-1.07-4.25-1.98-6.46-2.74-16.04-5.5-32.57-9.22-48.96-13.46-.66-.17-1.35-.25-2.03-.3-.62-.04-1.04.33-1.2.91-.18.67-.35,1.44.44,1.81.86.4,1.79.67,2.71.91,13.15,3.54,26.33,6.98,39.45,10.62,5.16,1.43,10.34,2.96,15.05,5.64,1.17.67,2.62,1.39,2.45,3.02-.16,1.54-1.56,2.18-2.86,2.69-3.12,1.24-6.4,1.58-9.72,1.6-15.5.11-30.72-2.4-45.84-5.35-12.14-2.37-24.46-4.15-36.08-8.72-2.32-.91-4.67-1.79-7.01-3.68,1.39-.38,2.16-.66,2.97-.81,15.25-2.84,29.89-7.63,43.62-14.8,4.37-2.28,8.23-2.51,12.92-1.51,15.43,3.31,30.79,7.5,46.86,5.71.75-.08,1.61.33,2.35.66,5.54,2.45,11.13,4.82,16.28,8.05,1.57.98,3.48,1.68,4.21,3.68-1.35,1.38-2.97.97-4.38.79-5.46-.71-10.9-1.56-16.17-3.25-13.1-4.21-26.33-8.01-39.61-11.6-.93-.25-1.86-.49-2.81-.66-.91-.17-1.65.11-1.94,1.07-.29.94.06,1.61.97,1.96.77.3,1.54.59,2.32.85,12.66,4.22,25.38,8.24,38.35,11.43,7.91,1.95,15.56,4.66,22.94,8.1,1.4.65,3.23.93,3.86,3.31-9.08,2.88-18.41,2.92-27.99,3.51Zm-69.38,114.19c.15-.69.14-1.11.31-1.43,4.38-8.1,8.78-16.19,13.17-24.28.47-.86.95-1.87,1.91-2.07,4.82-1.05,6.55-5.08,8.67-8.76,3.21-5.6,5.89-11.51,9.61-16.83,2.62-3.74,6.81-5.09,10.62-6.76,2.61-1.15,4.67,1.72,6.99,2.75,1.63.73,3.11,1.82,4.78,2.42,2.88,1.03,3.53,2.61,2.72,5.64-3.01,11.3-6.13,22.57-10.61,33.39-3.76,9.09-1.57,7.73-11.49,6.79-7.27-.69-14.28-.63-20.98,2.57-1.7.81-4.28.91-3.6,4.04.23,1.06-.95,1.14-1.75,1.24-3.38.44-6.77.85-10.34,1.29Zm24.75-198.56c2.83.48,4.74,2.05,6.55,3.73,7.93,7.38,9.15,15.01,3.87,24.47-3.66,6.56-9.25,11.29-15.41,15.28-17.87,11.56-37.68,17.97-58.56,21.26-5.08.8-10.34,1.07-15.16-2.59,7.15-.87,13.91,1.33,21.39.24-3.41-5.43-6.5-10.36-10.01-15.96,14.13,1.05,27.45,2.05,40.77,3.04l.59-.97c-4.92-5.67-9.84-11.34-14.76-17,.22-.4.44-.8.66-1.21h38.26c-3.87-5.68-8.96-9.17-12.18-14.77,8.61-.58,16.69.72,25.69-.42-4.23-5.45-7.97-10.28-11.72-15.11ZM17.01,18.48c3.57,4.15,5.66,8.17,8,12.04.72,1.19,1,3.23,3.11,2.62,2.16-.62,1.18-2.42,1.12-3.83-.31-7.33-1.62-14.64-.72-22.87,4.49,7.38,7.23,14.77,11.35,22.28,2.85-6.24,3.9-12.12,7.39-17.57,1.22,3.84,1.38,7.12,1.76,10.36.31,2.67,1.29,3.29,3.77,1.9,3.08-1.74,5.32-4.48,8.63-7.32-1.84,8.09-4.51,14.84-7.5,21.49-.81,1.79-1.84,3.39-3.21,4.76-8.23,8.24-17.88,14.19-29,17.64-5,1.55-7.82.46-10.44-4.09-4.03-7.01-3.78-14.51-1.87-22.06.44-1.74,1.43-2.28,2.82-.53,1.06,1.33,1.66,3.13,4.05,4.22.3-6.33-.71-12.33.73-19.04Zm181.7,328.71c2.54-1.45,4.32-2.48,6.1-3.49,9.71-5.5,19.43-10.99,28.59-17.4,1.35-.94,2.71-1.81,3.58-3.34,2.19-3.85,5.15-7.14,7.82-10.65,1.23-1.61,2.62-2.52,4.67-2.96,10.23-2.18,20.34-4.88,30.29-8.13.89-.29,1.76-.81,3.23-.11-2.7,7.62-5.61,15.08-12.2,20.41-.95.77-2.08,1.46-3.24,1.78-10.34,2.86-19.26,8.45-27.08,15.44-7.76,6.93-16.86,10.67-26.41,13.86-1.62.54-3.17.94-4.78.1-3.28-1.71-6.56-3.43-10.56-5.53ZM48.84,107.31c.17-7.13-.46-13.79-4.35-19.71-.82-1.25-1.99-2.39-.71-4.04,1.26-1.62,2.83-.97,4.14-.42,3.29,1.39,5.51.09,7.5-2.42,2.49-3.14,4.77-6.42,6.32-10.13,3.12-7.49,1.02-12.73-6.25-16.29-3.09-1.51-6.4-1.89-10.3-2.23,3.74-3.37,7.28-6.01,9.96-9.52.57-.74,1.36-.81,2.2-.9,10.08-1.02,21.06,6.57,23.82,16.55-2.12-.5-3.53-2.13-5.29-3.11-1.07-.6-2.01-1.58-3.28-.36-1.26,1.21-.39,2.29.21,3.32,1.75,3.01,3.56,5.99,5.69,9.56-3.4-1.14-5.08-3.64-8.61-4.59,2.6,6.7,4.98,12.83,7.36,18.96-1.21-.37-1.86-1.05-2.5-1.74-.74-.8-1.39-1.82-2.74-1.2-1.49.69-1.15,1.98-1.07,3.22.07,1.19,1.11,2.24.51,3.57-1.26-.95-2.2-1.28-2.18.89.05,3.91.01,7.82.01,12.42-3.16-3.02-4.08-6.85-7.28-9.77-1.41,6.09-1.22,11.85-2.22,17.5-1.47-.6-.8-2.65-2.81-2.66-1.04,3.5-2.11,7.08-3.38,11.36-1.45-4-.58-7.6-2.29-10.61-1.37.35-1.12,1.76-2.45,2.32Zm256.06,53.66c.53-1.05.74-1.55,1.01-2.01,7.52-12.65,15.06-25.29,22.05-38.24,5.63-10.42,11.24-20.82,19.06-29.83,1.81-2.09,3.64-4.13,5.96-5.67,3.29-2.19,5.08-1.37,5.48,2.53.08.8-.1,1.64-.18,2.46-.83,9.2-4.73,17.44-8.12,25.84-.41,1.01-.96,1.91-2.23,2.21-3.29.79-5.32,3.29-7.34,5.73-3.61,4.35-6.74,9.04-9.74,13.82-4.32,6.87-8.54,13.8-12.89,20.65-.65,1.03-1.05,3.13-2.82,2.3-3.31-1.55-6.43-.24-10.24.2Zm-6.94-12.48c9.05-15.33,15.75-31.16,22.75-46.86,4.65-10.43,9.09-20.96,15.35-30.58,1.89-2.9,3.99-5.62,7.08-7.37,1.44-.81,3.01-1.81,4.6-.65,1.44,1.05.99,2.76.71,4.22-.36,1.89-.77,3.79-1.41,5.6-4.13,11.72-9.21,23.03-15.62,33.65-7.68,12.73-15.48,25.38-22.6,38.43-1.46,2.68-2.55,5.59-6.59,3.35-.89-.49-2.37.08-4.28.2Zm-138.57,235.08c.24,1.67-.74,2.75-1.38,3.93-3.61,6.65-7.14,13.36-10.92,19.92-6.87,11.93-13.49,24.02-21.92,34.98-1.8,2.33-3.79,3.63-6.83,3.94-10.49,1.04-21.02,1.86-31.6,4.31,2.06-1.94,2.04-2.02,5.05-2.81,14.29-3.79,26.2-10.44,34.02-23.94,6.9-11.91,14.22-23.57,20.14-36.03.71-1.5.95-3.71,3.26-3.85,3.38-.2,6.76-1.07,10.18-.43Zm64.98-30.83c.12.77.25,1.06.19,1.29-4.6,17.15-9.56,34.18-15.72,50.85-.45,1.23-.91,2.4-2.34,3.19-2.6,1.43-2.49,2.54.12,3.8,3.09,1.5,6.28,2.81,9.35,4.36,1.47.74,3.18,1.48,3.44,4.28-2.46-2.08-4.23-4.11-7.02-4.27-3.98-.23-7.96-.52-11.94-.69-1.48-.06-3.13-.16-3.76,1.75-.36,1.09-1.38,1.26-2.26,1.6-8.15,3.09-16.53,5.56-24.57,9.86.81-2.07,2.13-2.97,3.61-3.79,2.4-1.34,4.69-2.88,7.1-4.2,10.36-5.67,17.03-14.09,20.93-25.36,4.11-11.84,8.06-23.69,11.16-35.83.36-1.43.38-3.07,2.19-3.67,3.1-1.02,6.01-2.62,9.52-3.19Zm97.17-110.69c-.04-.28-.07-.56-.11-.84,7.01-2.78,13.64-6.25,19.89-10.41,1.2-.8,2.36-.29,3.54.11,4.93,1.7,9.9,3.28,14.8,5.07,3.99,1.46,8.02,2.91,11.63,5.23,1.13.72,2.47,1.49,2.25,3.16-.22,1.62-1.61,2.14-2.92,2.56-3.72,1.17-7.56,1.41-11.42,1.17-9.49-.59-18.85-2.04-28.15-3.97-3.18-.66-6.34-1.39-9.5-2.08ZM19.15,90.25s.04,0,.06,0c0-.83-.03-1.65,0-2.48.2-4.66.67-5.09,5.33-5.41,3.73-.25,6.93,1.47,10.34,2.51,6.08,1.87,8.5,6.53,9.77,12.2.4,1.78.16,3.18-1.4,4.36-5.09,3.87-10.87,6.26-16.93,3.86-6-2.38-7.07-8.3-7.17-14.22,0-.28,0-.55,0-.83Zm152.67,167.86c3.48-2.92,6.46-5.34,9.34-7.86,1.31-1.15,2.7-1.21,4.23-.77,10.7,3.07,21.53,5.71,31.98,9.63,1.53.58,3.04,1.29,4.44,2.14,1.76,1.07,1.42,2.08-.32,2.92-1.3.62-2.68.6-4.04.65-5.37.19-10.7-.11-16.03-.88-9.78-1.41-19.45-3.34-29.61-5.82ZM29.09,63.51c5.14-4.25,12.51-7.28,17.89-7.59,4.07-.23,7.55,1.15,10.52,3.87,2.11,1.93,2.9,4.17,1.98,7.04-1.41,4.41-3.91,8.15-6.76,11.71-1.06,1.32-2.28,1.76-3.99,1.23-2.89-.9-5.71-1.08-7.85,1.72-.53.69-1.2.95-2.16.77-4.56-.87-6.3-3.29-5.51-7.88.14-.81.29-1.63.52-2.41.78-2.67.19-4.85-2.15-6.49-.78-.54-1.5-1.18-2.48-1.97Zm343.78,35.45c-2.76,17.8-7.38,34.65-22.76,46.81.29-.85.47-1.33.62-1.82,2.25-7.18,5.28-14.23,3.45-22.06-.27-1.17.48-2.1,1.1-3.01,3.47-5.12,6.82-10.34,10.87-15.03,1.74-2.02,3.32-4.35,6.71-4.88Zm-159.38,140.87c-6.97-.18-13.19-1.32-19.45-2.08-3.32-.4-3.82-1.65-2.73-4.49.48-1.24.65-2.71.56-4.04-.18-2.78,1.11-2.87,3.23-2.2,6.15,1.95,12.33,3.77,18.47,5.74,2.08.67,4.1,1.58,6.1,2.46,1.09.48,2.6.88,2.33,2.43-.25,1.47-1.84,1.57-2.99,1.75-2.03.31-4.1.33-5.52.43Zm-28,5.97c1.05-1.71,1.7-2.93,2.5-4.04,1.13-1.57,5.97-1.52,6.21.17.4,2.79,2.36,2.7,4.11,3.16,7.19,1.91,14.34,3.95,21.2,6.86,3.8,1.61,7.62,3.26,10.56,6.31,1.06,1.09,2.38,2.47.65,3.78-1.28.97-3.1,1.52-4.14-.7-1.08-2.3-3.19-3.29-5.34-4.29-4.26-1.98-8.72-3.38-13.21-4.71-7.37-2.17-14.76-4.29-22.55-6.56Zm123.33-.52c2.21-1.17,4.52-1.45,6.81-.93,11.95,2.71,23.92,5.34,36.13,6.64,1.15.12,2.3.41,2.35,1.82.04,1.25-.87,1.97-1.94,2.42-1.97.83-4.05.77-6.11.64-13.11-.87-25.09-5.8-37.24-10.58Zm37.35-17.6c2-2.2,3.76-3.18,6.19-3.11,4.25.12,8.5-.07,12.75.03,3.02.07,6.05.54,8.73,2,2.37,1.29,2.45,3.07.14,4.31-3.82,2.05-8.05,3.23-12.28,2.1-5.11-1.36-10.04-3.41-15.53-5.33Zm10.31-9c2.37-2.82,3.45-7.3,6.97-8.26,6.21-1.69,12.63-.99,18.64,2.06-8.27,3.14-16.84,4.76-25.6,6.2ZM4.7,79.77c1.1-4.46,4.03-7.51,7.12-10.4,2-1.87,4.03-3.8,6.57-4.93,2.56-1.14,3.83-.07,5.61,3.69,1.31,2.76-1.1,2.71-2.31,3.23-5.79,2.47-11.81,4.45-16.98,8.41Zm105.08,356.8c-2.59,2.11-5.1,2.82-7.44,3.79-1.35.56-2.68,1.48-4.3.75-5.57-2.53-11.16-5.04-16.74-7.56,9.5-.08,18.65,1.52,28.48,3.02Zm50.79-23.81c9.16-1.72,18.7-2.58,28.37-2.74-1.4,1.56-3.01,2.6-4.4,3.9-2.68,2.5-5.58,2.81-9.06,1.91-4.91-1.26-9.94-2.07-14.91-3.07ZM13.46,79.29c-.05-.29-.1-.58-.16-.87,3.85-1.5,7.71-3.01,11.67-4.56.59,4.97.34,5.32-3.86,5.42-2.55.06-5.1.01-7.66.01Zm84.15,348.44c5.88,1.4,11.13,2.87,16.03,5.43-5.57-.28-11.31,0-16.03-5.43Zm129.56-183.39c-5.54,1.26-10.87.47-16.17-.9,5.33,1.91,11.07-4.16,16.17.9Zm-34.91,161.04c-5.41.71-10.89,2.32-16.04-1.44,5.43-.27,10.77.02,16.04,1.44Zm-48.53,37.47c-3.09-2.11-6.34-3.03-10.03-2.46-.75.12-1.82.27-1.7-.99.08-.83.79-1.63,1.67-1.47,3.79.71,7.59,1.48,10.06,4.92Z"/>
        <path class="cls-1" d="m39.37,64.63c-.09,4.01,3.07,7.27,7.2,7.42,3.91.14,7.66-3.2,7.78-6.95.13-4.01-3.44-7.65-7.51-7.68-4.01-.02-7.37,3.22-7.47,7.21Zm12.65-1.94c.89.88.91,2.03.66,3.07-.68,2.83-2.5,4.48-5.47,4.66-2.99.18-5.34-1.51-6.16-4.34-.82-2.83.46-4.93,2.73-6.22,2.35-1.34,4.92-1.9,6.67,1.16.52.55,1.05,1.11,1.57,1.66Z"/>
        <path class="cls-1" d="m52.01,62.69c-.52-.55-1.05-1.11-1.57-1.66-.66-.08-1.32-.16-1.97-.24-.21.28-.42.55-.63.83-.25,1.72-1.46,2.05-2.94,2.15-1.1.08-2.71-.49-2.9,1.34-.18,1.68.87,2.8,2.27,3.54,3.46,1.84,8.57-.49,7.75-5.95Z"/>
        <path class="cls-1" d="m48.47,60.78c-2.98-2.35-4.4-.23-6.07,1.94,2.38,1.2,3.89-.04,5.44-1.11.21-.28.42-.55.63-.83Z"/>
      </g>
    </g>
  </g>
</svg>